<?xml version="1.0" encoding="iso-8859-1"?>
<!-- Uploaded to: SVG Repo, www.svgrepo.com, Generator: SVG Repo Mixer Tools -->
<!DOCTYPE svg PUBLIC "-//W3C//DTD SVG 1.1//EN" "http://www.w3.org/Graphics/SVG/1.1/DTD/svg11.dtd">
<svg fill="#000000" version="1.1" id="Capa_1" xmlns="http://www.w3.org/2000/svg" xmlns:xlink="http://www.w3.org/1999/xlink" 
	 width="800px" height="800px" viewBox="0 0 31.613 31.613"
	 xml:space="preserve">
<g>
	<g>
		<g>
			<path d="M19.765,18.642V7.333c0-0.324-0.263-0.587-0.587-0.587H0.587C0.263,6.746,0,7.009,0,7.333v11.31
				c0,0.324,0.263,0.588,0.587,0.588h18.591C19.502,19.231,19.765,18.968,19.765,18.642z M15.313,11.426l0.917-1.59
				c0.092-0.158,0.319-0.158,0.409,0l0.919,1.59c0.092,0.158-0.021,0.356-0.205,0.356h-0.385v2.965c0,0.131-0.107,0.237-0.236,0.237
				h-0.594c-0.131,0-0.237-0.106-0.237-0.237v-2.965h-0.385C15.336,11.782,15.222,11.583,15.313,11.426z M11.76,11.426l0.919-1.59
				c0.09-0.158,0.318-0.158,0.41,0l0.918,1.59c0.092,0.158-0.023,0.356-0.206,0.356h-0.385v2.965c0,0.131-0.105,0.237-0.237,0.237
				h-0.593c-0.13,0-0.236-0.106-0.236-0.237v-2.965h-0.386C11.782,11.782,11.669,11.583,11.76,11.426z M7.801,15.871
				C7.863,15.884,7.906,15.937,7.906,16v0.286c0,0.082-0.066,0.147-0.148,0.147H3.385c-0.072,0-0.132-0.059-0.132-0.131V16
				c0-0.062,0.044-0.117,0.105-0.129l1.545-0.313v-1.293c-1.247-0.304-2.175-1.421-2.175-2.761c0-0.722,0.277-1.374,0.719-1.875
				h4.264c0.442,0.502,0.72,1.154,0.72,1.875c0,1.34-0.929,2.457-2.175,2.761v1.293L7.801,15.871z M18.01,16.322
				c0,0.064-0.053,0.118-0.118,0.118h-6.536c-0.065,0-0.119-0.054-0.119-0.118v-0.355c0-0.064,0.053-0.117,0.119-0.117h6.536
				c0.065,0,0.118,0.052,0.118,0.117V16.322z"/>
		</g>
		<g>
			<path d="M31.238,20.185h-0.916v-5.111c0-0.6-0.179-1.187-0.516-1.684l-2.29-3.392c-0.559-0.829-1.493-1.325-2.493-1.325h-3.552
				c-0.415,0-0.753,0.336-0.753,0.752v10.172c0,0.324-0.264,0.588-0.587,0.588h-5.228c0.551,0.476,0.931,1.141,1.041,1.894h6.133
				c0.217-1.494,1.502-2.646,3.058-2.646c1.554,0,2.838,1.151,3.056,2.646h3.047c0.207,0,0.375-0.169,0.375-0.376v-1.141
				C31.613,20.355,31.445,20.185,31.238,20.185z M27.488,14.069h-4.687c-0.208,0-0.375-0.168-0.375-0.376v-2.602
				c0-0.208,0.167-0.376,0.375-0.376h2.854c0.123,0,0.238,0.059,0.309,0.159l1.831,2.602C27.972,13.726,27.795,14.069,27.488,14.069
				z"/>
		</g>
		<g>
			<path d="M25.135,20.185c-1.293,0-2.34,1.049-2.34,2.343c0,1.292,1.047,2.34,2.34,2.34s2.341-1.048,2.341-2.34
				C27.475,21.234,26.427,20.185,25.135,20.185z M25.135,23.697c-0.646,0-1.17-0.523-1.17-1.169c0-0.647,0.523-1.171,1.17-1.171
				s1.171,0.523,1.171,1.171C26.305,23.173,25.779,23.697,25.135,23.697z"/>
		</g>
		<g>
			<path d="M5.626,20.185c-0.208,0-0.376,0.17-0.376,0.377v1.142c0,0.208,0.169,0.376,0.376,0.376H9.83
				c0.11-0.753,0.49-1.419,1.042-1.895H5.626L5.626,20.185z"/>
		</g>
		<g>
			<path d="M12.887,20.185c-1.292,0-2.34,1.049-2.34,2.343c0,1.292,1.048,2.34,2.34,2.34c1.293,0,2.341-1.048,2.341-2.34
				C15.228,21.234,14.18,20.185,12.887,20.185z M12.887,23.697c-0.646,0-1.17-0.523-1.17-1.169c0-0.647,0.524-1.171,1.17-1.171
				s1.17,0.523,1.17,1.171C14.057,23.173,13.533,23.697,12.887,23.697z"/>
		</g>
	</g>
</g>
</svg>